<svg xmlns="http://www.w3.org/2000/svg" width="1280" height="720" viewBox="0 0 1280 720" role="img" aria-labelledby="title desc">
  <title id="title">Sportalytics application screenshot placeholder</title>
  <desc id="desc">A stylized placeholder image representing the Sportalytics dashboard.</desc>
  <defs>
    <linearGradient id="bg" x1="0" x2="1" y1="0" y2="1">
      <stop offset="0%" stop-color="#0f172a"/>
      <stop offset="100%" stop-color="#111827"/>
    </linearGradient>
  </defs>
  <rect width="1280" height="720" fill="url(#bg)"/>
  <rect x="40" y="30" width="1200" height="660" rx="16" fill="#0b1220" stroke="#334155"/>
  <rect x="40" y="30" width="1200" height="56" rx="16" fill="#1e293b"/>
  <circle cx="74" cy="58" r="8" fill="#ef4444"/>
  <circle cx="98" cy="58" r="8" fill="#f59e0b"/>
  <circle cx="122" cy="58" r="8" fill="#22c55e"/>
  <text x="160" y="64" fill="#e2e8f0" font-family="Segoe UI, Arial, sans-serif" font-size="20" font-weight="700">Sportalytics</text>

  <rect x="70" y="115" width="240" height="545" rx="12" fill="#111827" stroke="#334155"/>
  <text x="95" y="160" fill="#cbd5e1" font-family="Segoe UI, Arial, sans-serif" font-size="18" font-weight="600">Navigation</text>
  <rect x="95" y="185" width="190" height="32" rx="8" fill="#1d4ed8"/>
  <text x="110" y="206" fill="#e5edff" font-family="Segoe UI, Arial, sans-serif" font-size="14">Home</text>
  <text x="110" y="246" fill="#94a3b8" font-family="Segoe UI, Arial, sans-serif" font-size="14">Predictions</text>
  <text x="110" y="282" fill="#94a3b8" font-family="Segoe UI, Arial, sans-serif" font-size="14">Player Props</text>
  <text x="110" y="318" fill="#94a3b8" font-family="Segoe UI, Arial, sans-serif" font-size="14">Odds Insight</text>
  <text x="110" y="354" fill="#94a3b8" font-family="Segoe UI, Arial, sans-serif" font-size="14">Live Totals</text>

  <rect x="340" y="115" width="870" height="140" rx="12" fill="#111827" stroke="#334155"/>
  <text x="370" y="160" fill="#e2e8f0" font-family="Segoe UI, Arial, sans-serif" font-size="28" font-weight="700">AI/ML Sports Analytics Dashboard</text>
  <text x="370" y="196" fill="#94a3b8" font-family="Segoe UI, Arial, sans-serif" font-size="16">Model confidence, odds comparison, and edge calculators in one place.</text>

  <rect x="340" y="280" width="270" height="170" rx="12" fill="#111827" stroke="#334155"/>
  <rect x="640" y="280" width="270" height="170" rx="12" fill="#111827" stroke="#334155"/>
  <rect x="940" y="280" width="270" height="170" rx="12" fill="#111827" stroke="#334155"/>
  <text x="365" y="320" fill="#94a3b8" font-family="Segoe UI, Arial, sans-serif" font-size="14">Today's Picks</text>
  <text x="665" y="320" fill="#94a3b8" font-family="Segoe UI, Arial, sans-serif" font-size="14">Model ROI</text>
  <text x="965" y="320" fill="#94a3b8" font-family="Segoe UI, Arial, sans-serif" font-size="14">Live Games</text>
  <text x="365" y="380" fill="#22c55e" font-family="Segoe UI, Arial, sans-serif" font-size="32" font-weight="700">+7.8%</text>
  <text x="665" y="380" fill="#38bdf8" font-family="Segoe UI, Arial, sans-serif" font-size="32" font-weight="700">63.4%</text>
  <text x="965" y="380" fill="#f59e0b" font-family="Segoe UI, Arial, sans-serif" font-size="32" font-weight="700">12</text>

  <rect x="340" y="480" width="870" height="180" rx="12" fill="#111827" stroke="#334155"/>
  <polyline points="380,620 470,560 560,590 650,540 740,565 830,515 920,555 1010,500 1100,530" fill="none" stroke="#22d3ee" stroke-width="4"/>
  <text x="370" y="515" fill="#94a3b8" font-family="Segoe UI, Arial, sans-serif" font-size="14">Performance Trend</text>

  <text x="640" y="695" text-anchor="middle" fill="#64748b" font-family="Segoe UI, Arial, sans-serif" font-size="14">Replace this file with an actual app screenshot when available.</text>
</svg>

